<?xml version="1.0" encoding="utf-8"?>
<!-- Generator: Adobe Illustrator 18.1.0, SVG Export Plug-In . SVG Version: 6.00 Build 0)  -->
<svg version="1.1" id="Layer_1" xmlns="http://www.w3.org/2000/svg" xmlns:xlink="http://www.w3.org/1999/xlink" x="0px" y="0px"
	 viewBox="0 0 792 612" enable-background="new 0 0 792 612" xml:space="preserve">
<path fill="#FFFFFF" d="M200.9,150l-12.5-17.6c-43.5,48-67.3,109.5-67.3,174.8c0,68.3,26.1,132.6,73.6,181.5l12.4-17.4
	c-42-44.6-65-102.5-65-164C142.1,248.8,162.9,193.6,200.9,150z"/>
<path fill="#FFFFFF" d="M241.1,185.6l-12.7-17.9c-32.6,39.1-50.3,88-50.3,139.5c0,54.7,20,106.3,56.4,146.5l12.5-17.7
	c-29.9-34.6-47.9-79.7-47.9-128.9C199,261.4,214.8,219.1,241.1,185.6z"/>
<path fill="#FFFFFF" d="M161,114.9l-12.4-17.5C94,154.1,64,228.4,64,307.2C64,388,95.5,464,152.6,521.1c0.8,0.8,1.6,1.5,2.4,2.3
	l12.3-17.3C114.3,452.9,85,382.3,85,307.2C85,235.2,111.9,167.3,161,114.9z"/>
<path fill="#FFFFFF" d="M564.7,167.7L552,185.6c26.3,33.6,42,75.8,42,121.6c0,49.2-18.1,94.2-47.9,128.9l12.5,17.7
	c36.5-40.2,56.4-91.8,56.4-146.5C615,255.7,597.3,206.8,564.7,167.7z"/>
<path fill="#FFFFFF" d="M632.1,114.9c49,52.3,75.9,120.2,75.9,192.3c0,75.1-29.2,145.7-82.3,198.9l12.3,17.3
	c0.8-0.8,1.6-1.5,2.4-2.3C697.6,464,729,388,729,307.2c0-78.9-30-153.1-84.5-209.7L632.1,114.9z"/>
<path fill="#FFFFFF" d="M604.7,132.4L592.2,150c38,43.6,58.8,98.8,58.8,157.2c0,61.5-23,119.4-65,164l12.4,17.4
	c47.5-48.9,73.6-113.2,73.6-181.5C672,242,648.2,180.4,604.7,132.4z"/>
<g>
	<path fill="#FFFFFF" d="M488.4,246.1h-51.8l-10.9-22c-1.3-2.7-4.1-4.4-7.1-4.4h-39.1c-3,0-5.8,1.7-7.1,4.4l-10.9,22h-64.9
		c-12.6,0-22.9,10.3-22.9,22.9v114.6c0,12.6,10.3,22.9,22.9,22.9h191.7c12.6,0,22.9-10.3,22.9-22.9V269.1
		C511.4,256.4,501.1,246.1,488.4,246.1L488.4,246.1z M384.4,235.6h29.3l5.2,10.5h-39.8L384.4,235.6z M488.4,262
		c3.9,0,7.1,3.2,7.1,7.1v16.2h-29.1c-12-10.6-27.8-17-45-17c-17.2,0-33,6.4-45,17h-86.8v-16.2c0-3.9,3.2-7.1,7.1-7.1H488.4z
		 M421.4,389.7c-29,0-52.6-23.7-52.6-52.8c0-29.1,23.6-52.8,52.6-52.8c29,0,52.6,23.7,52.6,52.8C474,366,450.4,389.7,421.4,389.7
		L421.4,389.7z M289.6,383.7v-82.6h73.5c-6.4,10.4-10.1,22.7-10.1,35.8c0,21.9,10.3,41.4,26.2,53.9h-82.5
		C292.8,390.8,289.6,387.6,289.6,383.7L289.6,383.7z M488.4,390.8h-24.8c15.9-12.6,26.2-32.1,26.2-53.9c0-13.1-3.7-25.4-10.1-35.8
		h15.8v82.6C495.5,387.6,492.3,390.8,488.4,390.8L488.4,390.8z M488.4,390.8"/>
	<path fill="#FFFFFF" d="M421.4,296.8c-22,0-40,18-40,40.1c0,22.1,17.9,40.1,40,40.1c22,0,40-18,40-40.1
		C461.4,314.8,443.4,296.8,421.4,296.8L421.4,296.8z M421.4,361.1c-13.3,0-24.2-10.9-24.2-24.3c0-13.4,10.8-24.3,24.2-24.3
		c13.3,0,24.2,10.9,24.2,24.3C445.6,350.3,434.7,361.1,421.4,361.1L421.4,361.1z M421.4,361.1"/>
</g>
</svg>
