<?xml version="1.0" encoding="utf-8"?>
<!-- Generator: Adobe Illustrator 18.1.0, SVG Export Plug-In . SVG Version: 6.00 Build 0)  -->
<svg version="1.1" id="Layer_1" xmlns="http://www.w3.org/2000/svg" xmlns:xlink="http://www.w3.org/1999/xlink" x="0px" y="0px"
	 viewBox="0 0 792 612" enable-background="new 0 0 792 612" xml:space="preserve">
<path fill="#FFFFFF" d="M297.8,233.5"/>
<g>
	<path fill="#FFFFFF" d="M382.8,175"/>
	<path fill="#FFFFFF" d="M462.5,254.7c-6.4,0-11.7,2.1-15.9,5.3c0-14.9-11.7-26.6-26.6-26.6c-6.4,0-12.8,2.1-18.1,6.3
		c-4.2-10.6-13.8-17-24.4-17c-6.3,0-11.7,2.1-15.9,5.3V175c0-14.9-11.7-26.6-26.6-26.6c-14.8,0-26.6,11.7-26.6,26.6v94.6
		c-21.2-19.1-44.6-34-59.5-19.1c-21.2,21.3,23.4,62.7,57.4,125.4c24.4,43.6,58.5,59.5,92.4,59.5c50,0,90.3-40.4,90.3-90.3v-63.8
		C489,266.4,477.4,254.7,462.5,254.7L462.5,254.7z M478.4,304.7V345c0,41.4-36.1,79.7-79.7,79.7c-40.4,0-63.8-22.3-82.8-53.1
		c-41.4-70.1-71.2-102-59.5-113.7c11.7-11.7,40.4,13.8,62.7,37.1V175c0-8.5,7.4-15.9,15.9-15.9c8.5,0,15.9,7.4,15.9,15.9v111.6h10.6
		v-37.2c0-8.5,7.5-15.9,15.9-15.9c8.5,0,16,7.4,16,15.9V276H404v-15.9c0-8.5,7.5-16,16-16c8.5,0,15.9,7.5,15.9,16v26.6h10.6v-5.3
		c0-8.5,7.4-15.9,15.9-15.9c8.5,0,15.9,7.4,15.9,15.9V304.7z M478.4,304.7"/>
</g>
<g>
	<path fill="#FFFFFF" d="M266.7,165.2c-1.4,0-2.8-0.5-3.9-1.4c-2.5-2.1-2.8-5.9-0.7-8.5l61.8-72.5c2.1-2.5,5.9-2.8,8.5-0.7
		c2.5,2.1,2.8,5.9,0.7,8.5l-61.8,72.5C270.1,164.5,268.4,165.2,266.7,165.2z"/>
	<path fill="#FFFFFF" d="M328.5,92.7c0,0-0.1,0-0.1,0L289.6,92c-3.3-0.1-5.9-2.8-5.9-6.1c0.1-3.3,2.8-5.9,6.1-5.9l38.7,0.7
		c3.3,0.1,5.9,2.8,5.9,6.1C334.4,90.1,331.8,92.7,328.5,92.7z"/>
	<path fill="#FFFFFF" d="M338.1,129.8c-2.6,0-5.1-1.8-5.8-4.4L322.1,88c-0.9-3.2,1-6.5,4.2-7.4c3.2-0.9,6.5,1,7.4,4.2l10.2,37.4
		c0.9,3.2-1,6.5-4.2,7.4C339.1,129.7,338.6,129.8,338.1,129.8z"/>
</g>
<g>
	<path fill="#FFFFFF" d="M184.9,258.6c-1.4,0-2.8-0.5-3.9-1.4c-2.5-2.1-2.8-5.9-0.7-8.5l61.8-72.5c2.1-2.5,5.9-2.8,8.5-0.7
		c2.5,2.1,2.8,5.9,0.7,8.5l-61.8,72.5C188.3,257.9,186.6,258.6,184.9,258.6z"/>
	<path fill="#FFFFFF" d="M223.7,259.3c0,0-0.1,0-0.1,0l-38.7-0.7c-3.3-0.1-5.9-2.8-5.9-6.1c0.1-3.3,2.8-5.9,6.1-5.9l38.7,0.7
		c3.3,0.1,5.9,2.8,5.9,6.1C229.6,256.7,226.9,259.3,223.7,259.3z"/>
	<path fill="#FFFFFF" d="M185.5,258.9c-2.6,0-5.1-1.8-5.8-4.4l-10.2-37.4c-0.9-3.2,1-6.5,4.2-7.4c3.2-0.9,6.5,1,7.4,4.2l10.2,37.4
		c0.9,3.2-1,6.5-4.2,7.4C186.6,258.8,186,258.9,185.5,258.9z"/>
</g>
</svg>
