<?xml version="1.0" encoding="utf-8"?>
<!-- Generator: Adobe Illustrator 18.1.0, SVG Export Plug-In . SVG Version: 6.00 Build 0)  -->
<svg version="1.1" id="Layer_1" xmlns="http://www.w3.org/2000/svg" xmlns:xlink="http://www.w3.org/1999/xlink" x="0px" y="0px"
	 viewBox="0 0 901 108" enable-background="new 0 0 901 108" xml:space="preserve">
<polygon fill=#b52808; points="569.4,19 426.2,19 356.1,89.1 499.3,89.1 "/>
<polygon class="timer-bar" points="187.5,89.1 330.7,89.1 400.8,19 257.6,19 "/>
<path class= "timer-bar" d="M162,89.1L232.1,19H98.3c-23.1,0-42,15.8-42,35.1c0,19.3,18.9,35.1,42,35.1H162z"/>
<polygon points="735.1,19 591.9,19 521.8,89.1 664.9,89.1 "/>
<path d="M815.1,19h-54.6l-70.1,70.1h124.7c23.1,0,42-15.8,42-35.1C857.1,34.8,838.2,19,815.1,19z"/>
</svg>
